<?xml version="1.0" encoding="utf-8"?>
<!-- Generator: Adobe Illustrator 16.0.0, SVG Export Plug-In . SVG Version: 6.00 Build 0)  -->
<!DOCTYPE svg PUBLIC "-//W3C//DTD SVG 1.1//EN" "http://www.w3.org/Graphics/SVG/1.1/DTD/svg11.dtd">
<svg version="1.1" id="Calque_1" xmlns="http://www.w3.org/2000/svg" xmlns:xlink="http://www.w3.org/1999/xlink" x="0px" y="0px"
	 width="100px" height="100px" viewBox="0 0 100 100" enable-background="new 0 0 100 100" xml:space="preserve">
<g>
	<g>
		<path fill="#FFFFFF" d="M85.631,37.893c-0.331-2.488-0.378-6.775,1.934-8.214c0.041-0.026,0.072-0.064,0.107-0.097
			c1.891-0.604,3.198-1.453,2.171-2.594l-27.875-8.399l-45.137,6.275c0,0-5.169,0.738-4.707,8.769
			c0.251,4.371,1.622,6.517,2.82,7.573l-3.704,1.116c-1.028,1.142,0.28,1.99,2.169,2.593c0.036,0.034,0.066,0.072,0.108,0.098
			c2.31,1.44,2.266,5.726,1.933,8.214c-8.298,2.357-5.319,3.125-5.319,3.125l1.82,0.439c-1.28,1.158-2.552,3.353-2.313,7.513
			c0.461,8.029,4.707,8.584,4.707,8.584l29.538,9.6l44.583-10.798c0,0,2.979-0.77-5.32-3.126c-0.334-2.485-0.38-6.771,1.935-8.215
			c0.043-0.025,0.074-0.063,0.108-0.097c1.89-0.604,3.196-1.451,2.17-2.593l-1.938-0.585c1.292-0.779,3.232-2.816,3.537-8.107
			c0.21-3.639-0.739-5.771-1.839-7.025l3.83-0.927C90.95,41.019,93.93,40.25,85.631,37.893z M48.339,37.79l7.498-1.541l25.337-5.207
			l3.773-0.776c-1.206,2.208-1.155,5.229-0.955,7.171c0.044,0.439,0.094,0.84,0.143,1.145l-4.132,1.027l-31.979,7.956L48.339,37.79z
			 M16.134,45.604l3.774,0.777l24.333,5.001l2.126,0.436l0,0l0,0l6.375,1.311l0.313,9.774l-32.866-8.178l-3.241-0.805
			c0.048-0.305,0.098-0.706,0.144-1.146C17.29,50.833,17.342,47.812,16.134,45.604z M14.668,33.247
			c-0.045-2.136,0.335-3.681,1.104-4.466c0.49-0.501,1.067-0.605,1.463-0.605c0.209,0,0.36,0.029,0.37,0.029l19.449,6.34
			l9.703,3.164l-0.318,9.843l-27.221-7.632l-1.437-0.402c-0.053-0.015-0.124-0.025-0.179-0.027
			C17.49,39.481,14.799,39.234,14.668,33.247z M43.953,78.226l-28.657-8.034c-0.053-0.016-0.124-0.025-0.179-0.028
			c-0.114-0.008-2.807-0.255-2.937-6.24c-0.047-2.139,0.336-3.683,1.104-4.468c0.491-0.502,1.069-0.606,1.464-0.606
			c0.21,0,0.36,0.028,0.372,0.028c0,0,0.001,0,0,0l29.149,9.505L43.953,78.226z M81.504,68.109c0.045,0.441,0.096,0.842,0.145,1.146
			l-36.111,8.983l0.315-9.774l7.721-1.588l1.141,0.276l4.272-1.389l19.699-4.048l3.776-0.776
			C81.254,63.147,81.304,66.169,81.504,68.109z M83.493,54.825c-0.065,0.002-0.131,0.01-0.193,0.029l-2.724,0.763l-25.933,7.271
			l-0.316-9.843l8.508-2.774l20.602-6.719c0.003-0.001,1.084-0.241,1.877,0.565c0.769,0.786,1.149,2.33,1.104,4.466
			C86.283,54.569,83.591,54.817,83.493,54.825z"/>
	</g>
</g>
</svg>
