<?xml version="1.0" encoding="utf-8"?>
<!-- Generator: Adobe Illustrator 16.0.0, SVG Export Plug-In . SVG Version: 6.00 Build 0)  -->
<!DOCTYPE svg PUBLIC "-//W3C//DTD SVG 1.1//EN" "http://www.w3.org/Graphics/SVG/1.1/DTD/svg11.dtd">
<svg version="1.1" id="Capa_1" xmlns="http://www.w3.org/2000/svg" xmlns:xlink="http://www.w3.org/1999/xlink" x="0px" y="0px"
	 width="100px" height="100px" viewBox="256 256 100 100" enable-background="new 256 256 100 100" xml:space="preserve">
<g>
	<g id="_x38__28_">
		<g>
			<path fill="#1E2758" d="M309.125,277.875v-6.25h6.25c1.725,0,3.125-1.4,3.125-3.125c0-1.726-1.4-3.125-3.125-3.125h-18.75
				c-1.725,0-3.124,1.399-3.124,3.125c0,1.725,1.399,3.125,3.124,3.125h6.25c0,0-0.022,6.505,0,6.25
				C276.726,279.497,256,301.315,256,327.874c0,2.539,0,1.4,0,3.125c0,1.727,1.4,3.125,3.125,3.125h93.75
				c1.725,0,3.125-1.398,3.125-3.125c0-1.725,0-0.39,0-3.125C356,301.315,335.275,279.497,309.125,277.875z M352.875,340.374h-93.75
				c-1.725,0-3.125,1.401-3.125,3.126s1.4,3.125,3.125,3.125h93.75c1.725,0,3.125-1.4,3.125-3.125S354.6,340.374,352.875,340.374z"
				/>
		</g>
	</g>
</g>
</svg>
