<?xml version="1.0" encoding="utf-8"?>
<!-- Generator: Adobe Illustrator 16.0.0, SVG Export Plug-In . SVG Version: 6.00 Build 0)  -->
<!DOCTYPE svg PUBLIC "-//W3C//DTD SVG 1.1//EN" "http://www.w3.org/Graphics/SVG/1.1/DTD/svg11.dtd">
<svg version="1.1" id="Calque_1" xmlns="http://www.w3.org/2000/svg" xmlns:xlink="http://www.w3.org/1999/xlink" x="0px" y="0px"
	 width="100px" height="100px" viewBox="0 0 100 100" enable-background="new 0 0 100 100" xml:space="preserve">
<g id="XMLID_200_">
	<path id="XMLID_201_" fill="#66BB6A" d="M50.023,0C22.439,0,0,22.368,0,50.023c0,27.583,22.368,50.021,50.023,50.021
		c27.584,0,50.022-22.367,50.022-50.021C100.046,22.368,77.607,0,50.023,0z M63.102,22.01c5.002,0,9.004,4.073,9.004,9.005
		c0,1.644-1.357,3-3,3c-1.646,0-3.002-1.357-3.002-3c0-1.645-1.357-3.002-3.002-3.002S60.1,29.37,60.1,31.015
		c0,1.644-1.357,3-3.002,3c-1.643,0-3-1.357-3-3C54.025,26.083,58.1,22.01,63.102,22.01z M37.017,22.01
		c5.003,0,9.004,4.073,9.004,9.005c0,1.644-1.357,3-3.001,3s-3.001-1.357-3.001-3c0-1.645-1.357-3.002-3.002-3.002
		c-1.643,0-3.001,1.357-3.001,3.002c0,1.644-1.357,3-3,3c-1.645,0-3.002-1.357-3.002-3C27.942,26.083,32.015,22.01,37.017,22.01z
		 M50.023,80.18c-17.651,0-31.944-14.293-31.944-31.943h63.815C81.967,65.887,67.675,80.18,50.023,80.18z"/>
</g>
</svg>
