<?xml version="1.0" encoding="utf-8"?>
<!-- Generator: Adobe Illustrator 16.0.0, SVG Export Plug-In . SVG Version: 6.00 Build 0)  -->
<!DOCTYPE svg PUBLIC "-//W3C//DTD SVG 1.1//EN" "http://www.w3.org/Graphics/SVG/1.1/DTD/svg11.dtd">
<svg version="1.1" id="Capa_1" xmlns="http://www.w3.org/2000/svg" xmlns:xlink="http://www.w3.org/1999/xlink" x="0px" y="0px"
	 width="100px" height="100px" viewBox="-27.324 -27.324 100 100" enable-background="new -27.324 -27.324 100 100"
	 xml:space="preserve">
<g>
	<g>
		<path fill="#FFFFFF" d="M39.672-16.718c-4.755,0-8.72,3.678-9.056,8.42L28.19,25.566c-0.106,1.476,0.402,2.939,1.414,4.021
			c1.008,1.082,2.419,1.71,3.898,1.71h0.141L32.815,57.81c-0.035,1.135,0.391,2.203,1.181,3.015c0.789,0.815,1.875,1.242,3.01,1.242
			h3.479c2.313,0,4.244-1.822,4.244-4.14v-69.618C44.728-14.466,42.449-16.718,39.672-16.718z"/>
		<path fill="#FFFFFF" d="M19.668-16.661h-0.353c-0.847,0-1.497,0.633-1.497,1.482v14.923c0,1.323-1.109,2.406-2.433,2.406H15.03
			c-1.321,0-2.441-1.083-2.441-2.406v-14.923c0-0.848-0.638-1.482-1.486-1.482h-0.36c-0.848,0-1.522,0.633-1.522,1.482v14.923
			c0,1.323-1.084,2.406-2.407,2.406H6.459c-1.322,0-2.346-1.083-2.346-2.406v-14.923c0-0.848-0.736-1.482-1.583-1.482H2.174
			c-0.846,0-1.55,0.633-1.55,1.482V7.394c0,2.775,2.265,4.972,5.04,4.972h0.67L4.917,57.799c-0.038,1.136,0.388,2.209,1.179,3.023
			c0.789,0.814,1.876,1.247,3.013,1.247h3.342c1.131,0,2.219-0.433,3.01-1.247c0.791-0.815,1.214-1.901,1.182-3.037l-1.418-45.421
			h0.955c2.779,0,5.003-2.199,5.003-4.973V-15.18C21.18-16.031,20.52-16.661,19.668-16.661z"/>
	</g>
</g>
</svg>
