<?xml version="1.0" encoding="utf-8"?>
<!-- Generator: Adobe Illustrator 16.0.0, SVG Export Plug-In . SVG Version: 6.00 Build 0)  -->
<!DOCTYPE svg PUBLIC "-//W3C//DTD SVG 1.1//EN" "http://www.w3.org/Graphics/SVG/1.1/DTD/svg11.dtd">
<svg version="1.1" id="Capa_1" xmlns="http://www.w3.org/2000/svg" xmlns:xlink="http://www.w3.org/1999/xlink" x="0px" y="0px"
	 width="100px" height="100px" viewBox="200 200 100 100" enable-background="new 200 200 100 100" xml:space="preserve">
<g>
	<path fill="#FFFFFF" d="M297.767,294.714l-32.682-32.678c5.704-6.424,9.202-14.844,9.202-24.091
		c0-20.042-16.304-36.345-36.343-36.345c-20.042,0-36.345,16.303-36.345,36.345c0,20.04,16.303,36.344,36.345,36.344
		c9.245,0,17.667-3.499,24.091-9.202l32.678,32.681c0.42,0.419,0.974,0.632,1.525,0.632c0.554,0,1.108-0.213,1.528-0.632
		C298.612,296.92,298.612,295.558,297.767,294.714z M237.945,269.971c-17.66,0-32.026-14.365-32.026-32.025
		c0-17.66,14.367-32.026,32.026-32.026c17.658,0,32.024,14.367,32.024,32.026c0,8.054-3.009,15.402-7.934,21.036
		c-0.952,1.085-1.969,2.102-3.054,3.054C253.348,266.962,245.998,269.971,237.945,269.971z"/>
</g>
</svg>
