<?xml version="1.0" encoding="utf-8"?>
<!-- Generator: Adobe Illustrator 16.0.0, SVG Export Plug-In . SVG Version: 6.00 Build 0)  -->
<!DOCTYPE svg PUBLIC "-//W3C//DTD SVG 1.1//EN" "http://www.w3.org/Graphics/SVG/1.1/DTD/svg11.dtd">
<svg version="1.1" id="Calque_1" xmlns="http://www.w3.org/2000/svg" xmlns:xlink="http://www.w3.org/1999/xlink" x="0px" y="0px"
	 width="100px" height="100px" viewBox="0 0 100 100" enable-background="new 0 0 100 100" xml:space="preserve">
<g id="XMLID_6_">
	<path id="XMLID_7_" fill="#FFFFFF" d="M50.098,0C22.465,0,0,22.466,0,50.099c0,27.631,22.466,50.099,50.098,50.099
		c27.631,0,50.099-22.468,50.099-50.099C100.196,22.466,77.85,0,50.098,0z M62.231,28.353c3.364,0,6.008,2.643,6.008,6.007
		c0,3.364-2.644,6.008-6.008,6.008c-3.363,0-6.007-2.644-6.007-6.008C56.225,30.996,58.867,28.353,62.231,28.353z M37.123,28.353
		c3.363,0,6.006,2.643,6.006,6.007c0,3.364-2.644,6.008-6.006,6.008c-3.364,0-6.007-2.644-6.007-6.008
		C31.116,30.996,33.879,28.353,37.123,28.353z M76.168,69.439c-1.081,1.203-3.003,1.324-4.205,0.24
		c-6.007-5.404-13.695-8.41-21.745-8.41s-15.859,3.006-21.746,8.41c-0.601,0.481-1.321,0.723-2.042,0.723
		c-0.841,0-1.682-0.36-2.283-0.963c-1.081-1.199-1.081-3.123,0.24-4.203c7.088-6.368,16.219-9.971,25.831-9.971
		c9.49,0,18.741,3.481,25.829,9.971C77.25,66.316,77.37,68.24,76.168,69.439z"/>
</g>
</svg>
