<?xml version="1.0" encoding="utf-8"?>
<!-- Generator: Adobe Illustrator 16.0.0, SVG Export Plug-In . SVG Version: 6.00 Build 0)  -->
<!DOCTYPE svg PUBLIC "-//W3C//DTD SVG 1.1//EN" "http://www.w3.org/Graphics/SVG/1.1/DTD/svg11.dtd">
<svg version="1.1" id="Capa_1" xmlns="http://www.w3.org/2000/svg" xmlns:xlink="http://www.w3.org/1999/xlink" x="0px" y="0px"
	 width="100px" height="100px" viewBox="-27.324 -27.324 100 100" enable-background="new -27.324 -27.324 100 100"
	 xml:space="preserve">
<g>
	<g>
		<path fill="#1E2758" d="M43.443-23.587c-5.811,0-10.654,4.494-11.065,10.288l-2.964,41.374c-0.131,1.803,0.491,3.592,1.727,4.912
			c1.231,1.323,2.956,2.09,4.764,2.09h0.172l-1.012,32.395c-0.043,1.387,0.477,2.692,1.442,3.684
			c0.964,0.997,2.291,1.517,3.678,1.517h4.249c2.827,0,5.187-2.226,5.187-5.058v-85.059C49.619-20.837,46.835-23.587,43.443-23.587z
			"/>
		<path fill="#1E2758" d="M19.001-23.519H18.57c-1.034,0-1.828,0.773-1.828,1.812v18.233c0,1.617-1.355,2.939-2.972,2.939h-0.436
			c-1.615,0-2.983-1.323-2.983-2.939v-18.233c0-1.036-0.779-1.812-1.816-1.812H8.096c-1.036,0-1.859,0.773-1.859,1.812v18.233
			c0,1.617-1.324,2.939-2.941,2.939H2.862c-1.615,0-2.867-1.323-2.867-2.939v-18.233c0-1.036-0.899-1.812-1.934-1.812h-0.436
			c-1.034,0-1.895,0.773-1.895,1.812V5.872c0,3.391,2.767,6.076,6.158,6.076h0.819L0.978,67.458
			c-0.045,1.387,0.475,2.699,1.441,3.693c0.964,0.995,2.292,1.524,3.681,1.524h4.083c1.383,0,2.711-0.529,3.677-1.524
			c0.966-0.996,1.484-2.323,1.445-3.71l-1.733-55.496h1.167c3.396,0,6.113-2.687,6.113-6.076v-27.579
			C20.848-22.748,20.042-23.519,19.001-23.519z"/>
	</g>
</g>
</svg>
