<?xml version="1.0" encoding="utf-8"?>
<!-- Generator: Adobe Illustrator 16.0.0, SVG Export Plug-In . SVG Version: 6.00 Build 0)  -->
<!DOCTYPE svg PUBLIC "-//W3C//DTD SVG 1.1//EN" "http://www.w3.org/Graphics/SVG/1.1/DTD/svg11.dtd">
<svg version="1.1" id="Capa_1" xmlns="http://www.w3.org/2000/svg" xmlns:xlink="http://www.w3.org/1999/xlink" x="0px" y="0px"
	 width="100px" height="100px" viewBox="154 154 100 100" enable-background="new 154 154 100 100" xml:space="preserve">
<g>
	<g id="keyboard-control">
		<path fill="#1E2758" d="M166.875,191.625c-6.806,0-12.375,5.569-12.375,12.375c0,6.807,5.569,12.375,12.375,12.375
			S179.25,210.807,179.25,204C179.25,197.194,173.681,191.625,166.875,191.625z M241.125,191.625
			c-6.807,0-12.375,5.569-12.375,12.375c0,6.807,5.568,12.375,12.375,12.375S253.5,210.807,253.5,204
			C253.5,197.194,247.932,191.625,241.125,191.625z M204,191.625c-6.806,0-12.375,5.569-12.375,12.375
			c0,6.807,5.569,12.375,12.375,12.375c6.807,0,12.375-5.568,12.375-12.375C216.375,197.194,210.807,191.625,204,191.625z"/>
	</g>
</g>
</svg>
