<?xml version="1.0" encoding="utf-8"?>
<!-- Generator: Adobe Illustrator 16.0.0, SVG Export Plug-In . SVG Version: 6.00 Build 0)  -->
<!DOCTYPE svg PUBLIC "-//W3C//DTD SVG 1.1//EN" "http://www.w3.org/Graphics/SVG/1.1/DTD/svg11.dtd">
<svg version="1.1" id="Capa_1" xmlns="http://www.w3.org/2000/svg" xmlns:xlink="http://www.w3.org/1999/xlink" x="0px" y="0px"
	 width="100px" height="100px" viewBox="200 200 100 100" enable-background="new 200 200 100 100" xml:space="preserve">
<g>
	<path fill="#1E2758" d="M259.976,264.824h-19.951v-9.094H200.5v27.162c0,2.534,2.053,4.584,4.587,4.584h89.815
		c2.542,0,4.598-2.05,4.598-4.584V255.73h-39.524V264.824z"/>
	<path fill="#1E2758" d="M294.903,223.986h-30.799c0,0,0-8.245,0-9.963c0-1.707-1.103-1.503-1.103-1.503h-28.721
		c0,0-1.214,0.146-1.214,1.556c0,1.41,0,9.908,0,9.908h-27.979c-2.534,0.003-4.587,2.053-4.587,4.598v20.462h99v-20.462
		C299.5,226.037,297.442,223.986,294.903,223.986z M237.768,223.986v-7.998h21.641v7.998H237.768z"/>
	<rect x="243.449" y="255.733" fill="#1E2758" width="13.109" height="5.958"/>
</g>
</svg>
