<?xml version="1.0" encoding="utf-8"?>
<!-- Generator: Adobe Illustrator 16.0.0, SVG Export Plug-In . SVG Version: 6.00 Build 0)  -->
<!DOCTYPE svg PUBLIC "-//W3C//DTD SVG 1.1//EN" "http://www.w3.org/Graphics/SVG/1.1/DTD/svg11.dtd">
<svg version="1.1" id="Capa_1" xmlns="http://www.w3.org/2000/svg" xmlns:xlink="http://www.w3.org/1999/xlink" x="0px" y="0px"
	 width="100px" height="100px" viewBox="950 125 100 100" enable-background="new 950 125 100 100" xml:space="preserve">
<g>
	<g>
		<g>
			<path fill="#FFFFFF" d="M1032.582,186.214v12.427h6.213v-18.64h-71.376v-25.459c0-0.809-0.303-1.542-0.909-2.198
				c-0.606-0.656-1.339-0.985-2.198-0.985c-0.858,0-1.591,0.329-2.197,0.985c-0.606,0.657-0.909,1.389-0.909,2.198v44.099h6.213
				v-12.427H1032.582z"/>
			<path fill="#FFFFFF" d="M977.193,167.272c1.566,0,2.93-0.556,4.092-1.667c1.162-1.111,1.743-2.45,1.743-4.016
				c0-1.566-0.581-2.905-1.743-4.016c-1.162-1.111-2.526-1.667-4.092-1.667s-2.905,0.556-4.016,1.667
				c-1.111,1.111-1.667,2.45-1.667,4.016s0.556,2.905,1.667,4.016C974.288,166.716,975.627,167.272,977.193,167.272z"/>
			<path fill="#FFFFFF" d="M1038.795,175.303v-7.577c0-1.212-0.43-2.197-1.288-2.955c-0.859-0.758-1.945-1.238-3.259-1.44
				l-45.008-4.395h-0.303c-0.808,0-1.49,0.278-2.046,0.833s-0.833,1.238-0.833,2.046v8.79h-11.517c-1.92,0-2.879,0.783-2.879,2.349
				s0.959,2.349,2.879,2.349H1038.795z"/>
		</g>
	</g>
</g>
</svg>
