<?xml version="1.0" encoding="utf-8"?>
<!-- Generator: Adobe Illustrator 16.0.0, SVG Export Plug-In . SVG Version: 6.00 Build 0)  -->
<!DOCTYPE svg PUBLIC "-//W3C//DTD SVG 1.1//EN" "http://www.w3.org/Graphics/SVG/1.1/DTD/svg11.dtd">
<svg version="1.1" id="Capa_1" xmlns="http://www.w3.org/2000/svg" xmlns:xlink="http://www.w3.org/1999/xlink" x="0px" y="0px"
	 width="100px" height="100px" viewBox="420.607 420.607 100 100" enable-background="new 420.607 420.607 100 100"
	 xml:space="preserve">
<g>
	<g>
		<path fill="#FFFFFF" d="M444.532,457.448l16.179,2.08c0.563,1.434,3.41,8.491,3.944,9.753c0,0,0,0-0.008,0
			c-4.687,2.318-9.375,4.628-14.062,6.947c1.627-0.299,3.276-0.446,4.932-0.446c2.171,0,4.295,0.258,6.323,0.771
			c4.092,1.039,7.792,2.702,11.363,4.317c3.189,1.433,6.203,2.791,9.213,3.572c0.422,0.11,0.83,0.206,1.238,0.288
			c-3.563-7.3-13.153-26.978-15.047-31.308c-0.892-2.043-2.118-2.801-3.856-3.024l-19-2.443c-2.623-0.334-5.021,1.516-5.364,4.137
			C440.06,454.716,441.91,457.115,444.532,457.448z"/>
		<path fill="#FFFFFF" d="M436.889,491.572c0.526,0.381,1.128,0.559,1.73,0.559c0.134,0,0.261-0.007,0.388-0.031
			c0.787-0.103,1.529-0.518,2.026-1.21c1.925-2.682,4.903-4.79,8.371-5.949c1.992-0.661,4.071-0.994,6.113-0.994
			c7.406,0,13.758,4.427,20.442,6.975c3.58,1.364,7.317,2.376,11.38,2.376c1.708,0,3.477-0.179,5.312-0.587
			c4.317-0.949,8.013-3,10.688-5.876c0.642-0.689,1.221-1.42,1.731-2.198c0.905-1.368,0.528-3.21-0.84-4.114
			c-0.504-0.336-1.07-0.49-1.632-0.49c-0.968,0-1.91,0.466-2.483,1.33c-0.229,0.346-0.482,0.682-0.757,1.008
			c-1.855,2.215-4.643,3.803-7.985,4.54c-3.083,0.675-6.484,0.477-9.522-0.313c-3.195-0.833-6.284-2.222-9.567-3.699
			c-3.491-1.567-7.093-3.196-11.002-4.19c-1.856-0.473-3.802-0.706-5.771-0.706c-2.681,0-5.407,0.438-7.999,1.303
			c-2.267,0.755-4.368,1.811-6.256,3.141c-1.99,1.402-3.691,3.076-5.058,4.976c-0.089,0.127-0.163,0.254-0.231,0.388
			C435.322,489.093,435.678,490.704,436.889,491.572z"/>
		<circle fill="#FFFFFF" cx="490.683" cy="467.306" r="10.482"/>
	</g>
</g>
</svg>
