<?xml version="1.0" encoding="utf-8"?>
<!-- Generator: Adobe Illustrator 16.0.0, SVG Export Plug-In . SVG Version: 6.00 Build 0)  -->
<!DOCTYPE svg PUBLIC "-//W3C//DTD SVG 1.1//EN" "http://www.w3.org/Graphics/SVG/1.1/DTD/svg11.dtd">
<svg version="1.1" id="Calque_1" xmlns="http://www.w3.org/2000/svg" xmlns:xlink="http://www.w3.org/1999/xlink" x="0px" y="0px"
	 width="100px" height="100px" viewBox="0 0 100 100" enable-background="new 0 0 100 100" xml:space="preserve">
<g id="XMLID_120_">
	<g>
		<path id="XMLID_17_" fill="#222C64" d="M81.648,49.986C81.344,66.647,67.743,80.066,51,80.066
			c-16.804,0-30.445-13.5-30.648-30.243L2.98,49.783c-0.02,0.426-0.02,0.852-0.02,1.277C2.96,77.594,24.467,99.1,51,99.1
			s48.04-21.506,48.04-48.04c0-0.344,0-0.689-0.021-1.013L81.648,49.986z"/>
		<path id="XMLID_16_" fill="#222C64" d="M97.904,40.682C93.182,19.135,73.966,3,51,3C28.115,3,8.96,19.013,4.136,40.438
			L97.904,40.682z M63.526,24.182c4.784,0,8.676,3.892,8.676,8.675c0,1.602-1.297,2.878-2.878,2.878
			c-1.602,0-2.879-1.297-2.879-2.878c0-1.601-1.297-2.898-2.898-2.898s-2.898,1.297-2.898,2.898c0,1.602-1.297,2.878-2.878,2.878
			c-1.602,0-2.879-1.297-2.879-2.878C54.852,28.074,58.743,24.182,63.526,24.182z M38.473,24.182c4.784,0,8.676,3.892,8.676,8.675
			c0,1.602-1.297,2.878-2.878,2.878c-1.602,0-2.878-1.297-2.878-2.878c0-1.601-1.297-2.898-2.898-2.898
			c-1.602,0-2.899,1.297-2.899,2.898c0,1.602-1.297,2.878-2.878,2.878c-1.601,0-2.878-1.297-2.878-2.878
			C29.797,28.074,33.689,24.182,38.473,24.182z"/>
	</g>
</g>
</svg>
