<?xml version="1.0" encoding="utf-8"?>
<!-- Generator: Adobe Illustrator 16.0.0, SVG Export Plug-In . SVG Version: 6.00 Build 0)  -->
<!DOCTYPE svg PUBLIC "-//W3C//DTD SVG 1.1//EN" "http://www.w3.org/Graphics/SVG/1.1/DTD/svg11.dtd">
<svg version="1.1" id="Capa_1" xmlns="http://www.w3.org/2000/svg" xmlns:xlink="http://www.w3.org/1999/xlink" x="0px" y="0px"
	 width="100px" height="100px" viewBox="200 200 100 100" enable-background="new 200 200 100 100" xml:space="preserve">
<g>
	<path fill="#1E2758" d="M298.305,263.168l-10.677-16.904v-31.097l-4.347-4.347h-66.563l-4.346,4.347v31.096l-10.677,16.905H298.305
		z M278.935,219.514v21.697c-5.602-1.449-15.277-3.236-28.935-3.236c-13.658,0-23.334,1.787-28.935,3.236v-21.697H278.935z"/>
	<polygon fill="#1E2758" points="201.5,268.517 201.5,277.209 211.628,277.209 211.628,289.18 220.321,289.18 220.321,277.209 
		279.679,277.209 279.679,289.18 288.372,289.18 288.372,277.209 298.5,277.209 298.5,268.517 	"/>
	<path fill="#1E2758" d="M246.472,233.453v-5.064c0-3.006-4.362-5.443-9.743-5.443s-9.743,2.438-9.743,5.443v7.601
		c0,0,5.747-1.446,9.698-1.82C240.24,233.832,246.472,233.453,246.472,233.453z"/>
	<path fill="#1E2758" d="M273.014,235.989v-7.601c0-3.006-4.362-5.443-9.743-5.443s-9.743,2.438-9.743,5.443v5.064
		c0,0,6.232,0.378,9.789,0.716C267.267,234.543,273.014,235.989,273.014,235.989z"/>
</g>
</svg>
