<?xml version="1.0" encoding="utf-8"?>
<!-- Generator: Adobe Illustrator 16.0.0, SVG Export Plug-In . SVG Version: 6.00 Build 0)  -->
<!DOCTYPE svg PUBLIC "-//W3C//DTD SVG 1.1//EN" "http://www.w3.org/Graphics/SVG/1.1/DTD/svg11.dtd">
<svg version="1.1" id="Capa_1" xmlns="http://www.w3.org/2000/svg" xmlns:xlink="http://www.w3.org/1999/xlink" x="0px" y="0px"
	 width="100px" height="100px" viewBox="950 125 100 100" enable-background="new 950 125 100 100" xml:space="preserve">
<g>
	<path fill="#FFFFFF" d="M999.697,154.827l-25.372-6.63l-0.382,0.392c-2.481,2.546-4.291,5.794-5.234,9.404
		c-2.384,9.132,1.407,18.226,8.564,21.477l-5.891,22.544c-4.539-0.991-8.065-1.184-8.275-0.368
		c-0.251,0.953,4.112,2.918,9.737,4.387c5.632,1.473,10.395,1.893,10.646,0.937c0.213-0.813-2.948-2.371-7.394-3.727l5.901-22.571
		c7.776,0.567,15.442-5.485,17.81-14.555c0.943-3.609,0.957-7.332,0.034-10.763L999.697,154.827z M986.715,174.367
		c0,0,8.423-3.616,7.941-7.063l2.333,0.609C996.989,167.913,996.05,174.041,986.715,174.367z M982.035,157.305
		c-4.452-4.655-7.611-4.676-9.259-4.143c0.629-1.025,1.345-1.989,2.14-2.859l23.232,6.069c0.402,1.703,0.543,3.475,0.447,5.265
		C998.434,161.681,988.749,164.331,982.035,157.305z"/>
	<path fill="#FFFFFF" d="M1028.613,209.958l-5.24-22.732c7.156-3.107,11.137-12.022,9.031-21.154
		c-0.839-3.637-2.553-6.94-4.961-9.548l-0.372-0.403l-25.555,5.891l-0.154,0.523c-1.022,3.406-1.119,7.125-0.279,10.759
		c2.12,9.197,9.696,15.493,17.548,15.057l5.237,22.705c-4.483,1.222-7.693,2.688-7.501,3.51c0.217,0.96,4.996,0.678,10.663-0.626
		c5.674-1.308,10.085-3.148,9.864-4.108C1036.709,209.009,1033.186,209.099,1028.613,209.958z M1024.636,179.449
		c0,0,5.783-7.108,3.757-9.94l2.35-0.54C1030.742,168.966,1032.748,174.828,1024.636,179.449z M1012.575,166.502
		c-6.104-2.062-8.911-0.613-10.122,0.623c0.079-1.201,0.268-2.381,0.57-3.523l23.397-5.395c1.146,1.321,2.096,2.825,2.839,4.459
		C1029.136,162.772,1021.779,169.613,1012.575,166.502z"/>
	<circle fill="#FFFFFF" cx="1014.977" cy="155.767" r="2.57"/>
	<circle fill="#FFFFFF" cx="1020.943" cy="144.44" r="2.233"/>
	<circle fill="#FFFFFF" cx="1016.278" cy="136.165" r="1.301"/>
	<circle fill="#FFFFFF" cx="1010.838" cy="135.721" r="0.857"/>
	<circle fill="#FFFFFF" cx="995.014" cy="137.321" r="2.457"/>
	<path fill="#FFFFFF" d="M974.38,140.393c0.389,0.2,0.729,0.372,1.111,0.551c0.382,0.175,0.774,0.44,1.083,0.809
		c0.313,0.361,0.588,0.794,0.826,1.263c0.248,0.464,0.458,0.974,0.626,1.5c0.375,1.05,0.592,2.185,0.74,3.334l0.271,0.021
		c0.29-1.167,0.368-2.367,0.331-3.603c-0.072-1.229-0.317-2.505-0.974-3.716c-0.327-0.599-0.723-1.218-1.256-1.745
		c-0.541-0.526-1.249-0.895-1.979-1.018c-1.462-0.255-2.863,0.151-3.864,1.108l0.051,0.269
		C972.618,139.685,973.612,139.981,974.38,140.393z"/>
	<path fill="#FFFFFF" d="M980.852,139.399c0.145,0.131,0.275,0.303,0.358,0.506c0.086,0.207,0.144,0.434,0.175,0.671
		c0.041,0.237,0.058,0.492,0.058,0.743c0.007,0.513-0.062,1.039-0.162,1.562l0.114,0.048c0.296-0.468,0.502-0.977,0.664-1.524
		c0.151-0.543,0.224-1.139,0.11-1.758c-0.055-0.31-0.134-0.633-0.293-0.943c-0.158-0.306-0.416-0.571-0.715-0.729
		c-0.602-0.32-1.27-0.347-1.848-0.072l-0.01,0.121c0.478,0.409,0.867,0.681,1.146,0.974
		C980.587,139.141,980.711,139.265,980.852,139.399z"/>
</g>
</svg>
