<?xml version="1.0" encoding="utf-8"?>
<!-- Generator: Adobe Illustrator 19.1.0, SVG Export Plug-In . SVG Version: 6.00 Build 0)  -->
<svg version="1.1" id="Capa_1" xmlns="http://www.w3.org/2000/svg" xmlns:xlink="http://www.w3.org/1999/xlink" x="0px" y="0px"
	 viewBox="-93 184.8 424.2 424.2" style="enable-background:new -93 184.8 424.2 424.2;" xml:space="preserve">
<g>
	<circle cx="36.3" cy="446.7" r="15"/>
	<circle cx="202" cy="446.7" r="15"/>
	<path d="M36.3,398.6c-8.2,0-15.9,3.2-21.7,9c-3.1,3.1-3.1,8.2,0,11.3s8.2,3.1,11.3,0c2.8-2.8,6.4-4.3,10.3-4.3s7.6,1.5,10.3,4.3
		c1.6,1.6,3.6,2.3,5.7,2.3c2,0,4.1-0.8,5.7-2.3c3.1-3.1,3.1-8.2,0-11.3C52.2,401.8,44.5,398.6,36.3,398.6z"/>
	<path d="M180.3,407.6c-3.1,3.1-3.1,8.2,0,11.3c3.1,3.1,8.2,3.1,11.3,0c5.7-5.7,15-5.7,20.7,0c1.6,1.6,3.6,2.3,5.7,2.3
		c2.1,0,4.1-0.8,5.7-2.3c3.1-3.1,3.1-8.2,0-11.3C211.7,395.7,192.2,395.7,180.3,407.6z"/>
	<path d="M307.9,438.9c0-21.7-15.7-39.9-36.4-43.6V261.5c0-17.4-8.6-33.5-23.1-43.1c-13.6-9-30.5-11.1-45.7-5.7l-50.2-17
		c-38.6-13.1-79.2-14.4-117.5-3.9c-50.1,13.8-78.8,43-83.2,84.6c-3.9,5.2-7,11-9.2,17.3l-3.9,11.5c-2.1,6.2,0.2,12.7,5.7,16.2
		s12.4,2.8,17.1-1.8c1.6-1.6,3.4-2.9,5.2-4v79.7c-20.7,3.8-36.4,21.9-36.4,43.6c0,22.6,17,41.3,38.9,44c5.5,30.3,19.9,58.3,42,80.7
		C40.1,592.9,78.4,609,119.1,609l0,0c40.7,0,79-15.9,107.7-44.6c22.5-22.5,37.1-50.7,42.4-81.4C291,480.1,307.9,461.5,307.9,438.9z
		 M239.6,231.8c10.1,6.7,16,17.6,16,29.7v104.7c-24.8-3.9-43.9-25.4-43.9-51.3l-0.7-88C220.7,224.4,230.9,226,239.6,231.8z
		 M-43.8,303.4l1.6-4.6c4.1-12.1,13.1-21.8,24.8-26.8s25-4.8,36.6,0.6c24.2,11.3,53.5,5.2,71.2-14.8l2-2.2c2.9-3.3,2.6-8.4-0.7-11.3
		c-3.3-2.9-8.4-2.6-11.3,0.7l-2,2.2c-13,14.7-34.6,19.2-52.5,10.9c-15.7-7.3-33.7-7.6-49.6-0.8c-1.4,0.6-2.8,1.3-4.2,2
		c9.3-24.8,31.8-42.2,67.2-52c35.2-9.7,72.5-8.5,108.1,3.6L195,227l0.6,41.3c-21.2,28.8-52.1,48.3-87.4,55.1
		c-36.1,6.9-72.9-0.4-103.7-20.5C-10.5,293.1-29.4,293.5-43.8,303.4z M-53.6,438.9c0-12.9,8.6-23.7,20.4-27.2v43.4
		c0,3.7,0.1,7.5,0.4,11.2C-44.8,462.9-53.6,451.9-53.6,438.9z M215.6,553.1c-25.8,25.8-60,39.9-96.4,39.9l0,0
		c-36.4,0-70.7-14.4-96.5-40.6c-25.7-26.1-39.9-60.7-39.9-97.3V311.9c4.5,0.3,9,1.8,13.1,4.4C30,338.7,71,346.8,111.2,339.1
		c32.6-6.2,61.9-22.3,84.4-45.9v21.7c0,34.7,26.2,63.4,59.9,67.4v74.3C255.5,493,241.3,527.3,215.6,553.1z M271.2,466.2
		c0.2-3.2,0.3-6.4,0.3-9.6v-44.9c11.8,3.5,20.4,14.3,20.4,27.2C291.9,451.9,283.1,462.9,271.2,466.2z"/>
	<path d="M145.7,528.1H90.3c-4.6,0-8.3-3.8-8.3-8.3l0,0c0-4.6,3.8-8.3,8.3-8.3h55.3c4.6,0,8.3,3.8,8.3,8.3l0,0
		C154,524.3,150.3,528.1,145.7,528.1z"/>
</g>
</svg>
