<?xml version="1.0" encoding="utf-8"?>
<!-- Generator: Adobe Illustrator 16.0.0, SVG Export Plug-In . SVG Version: 6.00 Build 0)  -->
<!DOCTYPE svg PUBLIC "-//W3C//DTD SVG 1.1//EN" "http://www.w3.org/Graphics/SVG/1.1/DTD/svg11.dtd">
<svg version="1.1" id="Capa_1" xmlns="http://www.w3.org/2000/svg" xmlns:xlink="http://www.w3.org/1999/xlink" x="0px" y="0px"
	 width="100px" height="100px" viewBox="200 200 100 100" enable-background="new 200 200 100 100" xml:space="preserve">
<g id="Menu">
	<path fill="#1E2758" d="M211.119,231.404h77.762c4.668,0,8.452-3.784,8.452-8.453c0-4.668-3.784-8.452-8.452-8.452h-77.762
		c-4.668,0-8.452,3.784-8.452,8.453C202.667,227.62,206.451,231.404,211.119,231.404z M288.881,241.547h-77.762
		c-4.668,0-8.452,3.784-8.452,8.452s3.784,8.452,8.452,8.452h77.762c4.668,0,8.452-3.784,8.452-8.452
		S293.549,241.547,288.881,241.547z M288.881,268.594h-77.762c-4.668,0-8.452,3.784-8.452,8.453c0,4.668,3.784,8.452,8.452,8.452
		h77.762c4.668,0,8.452-3.784,8.452-8.452C297.333,272.378,293.549,268.594,288.881,268.594z"/>
</g>
</svg>
