<?xml version="1.0" encoding="utf-8"?>
<!-- Generator: Adobe Illustrator 16.0.0, SVG Export Plug-In . SVG Version: 6.00 Build 0)  -->
<!DOCTYPE svg PUBLIC "-//W3C//DTD SVG 1.1//EN" "http://www.w3.org/Graphics/SVG/1.1/DTD/svg11.dtd">
<svg version="1.1" id="Capa_1" xmlns="http://www.w3.org/2000/svg" xmlns:xlink="http://www.w3.org/1999/xlink" x="0px" y="0px"
	 width="100px" height="100px" viewBox="392.55 392.55 100 100" enable-background="new 392.55 392.55 100 100"
	 xml:space="preserve">
<g>
	<g>
		<path fill="#1E2758" d="M396.211,421.448v60.496c0,1.468,0.934,2.766,2.323,3.233l25.99,8.754v-67.702l-23.815-8.015
			C398.499,417.463,396.211,419.114,396.211,421.448z"/>
		<path fill="#1E2758" d="M464.163,449.259c-0.979,1.036-2.231,1.765-3.586,2.106v33.037l23.805,8.014
			c2.208,0.74,4.507-0.899,4.507-3.232v-60.496c0-1.469-0.933-2.767-2.321-3.233l-4.919-1.662
			c-1.081,3.017-2.823,6.387-5.214,10.086C473.282,438.763,469.035,444.091,464.163,449.259z"/>
		<path fill="#1E2758" d="M453.37,449.247c-4.735-5.054-8.925-10.325-12.135-15.243c-2.482-3.814-4.28-7.252-5.373-10.292
			l-7.468,2.516v67.702l28.313-9.54v-33.094C455.443,450.921,454.281,450.227,453.37,449.247z"/>
		<path fill="#1E2758" d="M458.824,393.169c-0.023,0-0.046,0-0.058,0c-11.418,0-20.844,9.153-21.163,20.571
			c-0.057,1.981,0.159,3.905,0.614,5.737c0.183,0.979,0.479,2.027,0.889,3.143c1.958,5.385,5.065,10.28,8.561,14.799
			c2.266,2.937,6.944,10.747,11.1,10.747c4.417,0,9.482-8.686,11.782-11.794c3.108-4.201,6.091-8.732,7.867-13.672
			c0.41-1.138,0.717-2.22,0.899-3.222c0.409-1.639,0.626-3.358,0.626-5.134C479.942,402.675,470.492,393.203,458.824,393.169z
			 M460.577,424.897c-0.593,0.091-1.195,0.148-1.811,0.148c-0.705,0-1.389-0.068-2.061-0.194c-3.313-0.615-6.113-2.709-7.696-5.566
			c-0.888-1.605-1.389-3.438-1.389-5.396c0-6.159,4.997-11.157,11.157-11.157c6.158,0,11.156,4.998,11.156,11.157
			c0,1.992-0.523,3.859-1.435,5.475C466.861,422.244,463.97,424.339,460.577,424.897z"/>
	</g>
</g>
</svg>
