<?xml version="1.0" encoding="utf-8"?>
<!-- Generator: Adobe Illustrator 16.0.0, SVG Export Plug-In . SVG Version: 6.00 Build 0)  -->
<!DOCTYPE svg PUBLIC "-//W3C//DTD SVG 1.1//EN" "http://www.w3.org/Graphics/SVG/1.1/DTD/svg11.dtd">
<svg version="1.1" id="Capa_1" xmlns="http://www.w3.org/2000/svg" xmlns:xlink="http://www.w3.org/1999/xlink" x="0px" y="0px"
	 width="100px" height="100px" viewBox="950 125 100 100" enable-background="new 950 125 100 100" xml:space="preserve">
<g>
	<path fill="#FFFFFF" d="M987.949,163.525c0.232,0.158,0.504,0.242,0.788,0.242h0.003c0.773,0,1.403-0.629,1.403-1.402
		c0-0.135-0.019-0.268-0.057-0.396c-0.843-3.691-0.442-6.667,1.191-8.843c1.904-2.536,2.747-5.79,2.256-8.705
		c-0.434-2.58-1.82-4.724-4.01-6.2c-0.469-0.318-1.115-0.315-1.582,0.006c-0.478,0.329-0.702,0.907-0.57,1.476
		c0.91,3.883,0.083,6.342-1.989,10.072c-1.281,2.304-1.804,4.891-1.474,7.287C984.283,159.766,985.682,162.003,987.949,163.525z"/>
	<path fill="#FFFFFF" d="M999.904,162.902c0.219,0.15,0.475,0.229,0.741,0.229h0.002c0.726,0,1.315-0.59,1.315-1.317
		c0-0.124-0.018-0.247-0.051-0.366c-0.641-2.813-0.341-5.074,0.893-6.717c1.523-2.028,2.198-4.632,1.804-6.967
		c-0.349-2.075-1.464-3.8-3.227-4.99c-0.438-0.296-1.033-0.3-1.487,0.009c-0.443,0.308-0.655,0.867-0.53,1.382
		c0.695,2.963,0.059,4.846-1.533,7.708c-1.024,1.842-1.441,3.912-1.176,5.828C996.955,159.879,998.081,161.678,999.904,162.902z"/>
	<path fill="#FFFFFF" d="M1037.304,171.896c-0.873-1.028-2.123-1.594-3.52-1.594h-6.779c0.104-1.171-0.083-2.702-0.94-3.712
		c-0.602-0.706-1.455-1.079-2.474-1.079h-58.287c-1.509,0-2.378,0.649-2.841,1.193c-0.951,1.118-1.081,2.794-0.886,3.99
		c1.604,9.857,5.07,18.811,9.758,25.211c2.822,3.851,6.037,6.803,9.622,8.846c-0.526,0.749-0.837,1.66-0.837,2.644
		c0,2.549,2.073,4.622,4.623,4.622h19.047c2.548,0,4.622-2.073,4.622-4.622c0-0.967-0.3-1.863-0.809-2.606
		c2.882-1.625,5.519-3.833,7.897-6.618c11.367-1.056,21.318-11.952,22.924-21.747C1038.526,175.791,1038.751,173.6,1037.304,171.896
		z M1021.162,189.46c2.08-4.188,3.514-8.525,4.502-12.479h5.79C1030.064,181.697,1026.062,186.71,1021.162,189.46z"/>
</g>
</svg>
