<?xml version="1.0" encoding="utf-8"?>
<!-- Generator: Adobe Illustrator 19.1.0, SVG Export Plug-In . SVG Version: 6.00 Build 0)  -->
<svg version="1.1" id="Capa_1" xmlns="http://www.w3.org/2000/svg" xmlns:xlink="http://www.w3.org/1999/xlink" x="0px" y="0px"
	 viewBox="-94 186.4 421.6 421.6" style="enable-background:new -94 186.4 421.6 421.6;" xml:space="preserve">
<g>
	<path d="M297.7,584.4c-18.7-20.8-19.5-73.6-17.3-128.3c8.2-7.7,13.3-18.5,13.3-30.6c0-10.6-3.9-20.3-10.4-27.7
		c2.7-55.8,4.2-93.1-13.5-127.6c-12.1-23.5-31.6-43.2-58.1-58.4c-30.8-17.8-66-26.5-101.7-25.2c-31.4,1.1-60.6,15.7-80.7,40.3
		c-26,1.5-49.7,15.7-62.4,37.6c-1.1,1.9-2.2,3.8-3.1,5.7c-17.7,34.5-16.3,71.8-13.5,127.6c-6.5,7.4-10.4,17.1-10.4,27.7
		c0,12.1,5.1,22.9,13.3,30.6c2.2,54.7,1.4,107.6-17.3,128.3c-1.8,2-2.5,4.7-1.8,7.2c0.6,2.6,2.5,4.7,4.9,5.6
		c21.1,8,41.5,10.8,60,10.8c19.2,0,36.2-3.1,49.5-6.7c23.2-6.3,39.6-15.1,45.1-18.3c7.6,1.3,15.4,1.9,23.3,1.9s15.7-0.7,23.3-1.9
		c5.6,3.3,21.9,12.1,45.1,18.3c17.8,4.8,34.3,6.7,49.2,6.7c24.9,0,45.4-5.2,60.2-10.8c2.5-0.9,4.3-3,4.9-5.6
		C300.2,589.1,299.5,586.4,297.7,584.4z M259.7,442v-39.7c0-0.1,0-0.2,0-0.3v-1.2c10.4,3.4,18,13.2,18,24.7
		c0,11.6-7.7,21.5-18.2,24.8C259.6,447.5,259.7,444.8,259.7,442z M-22.1,277.6c0.9-1.7,1.8-3.4,2.7-5c10.5-18.1,30.7-29.5,52.6-29.8
		h0.1c2.4-0.1,4.7-1.2,6.2-3.1c17.3-22.5,43.1-36,71-37c32.7-1.2,64.9,6.8,93.2,23.1c23.7,13.7,41.2,31.1,51.8,51.8
		c14.2,27.6,14.6,57.6,12.3,109.1c-2.6-1.1-5.3-1.9-8.1-2.4v-8.2c0-4.4-3.6-8-8-8s-8,3.6-8,8v18.2c-110.2,1.2-169.9-51.9-185.8-68.5
		c-1.9-2-4.6-2.8-7.3-2.3s-4.9,2.3-5.9,4.8c-11.6,28.3-31.9,43.1-63.9,46.6c-4.1,0.4-7.1,3.9-7.1,8v1.5c-2.8,0.5-5.5,1.4-8.1,2.4
		C-36.7,335.1-36.3,305.1-22.1,277.6z M-26.1,450.3c-10.6-3.3-18.2-13.2-18.2-24.8c0-11.5,7.6-21.4,18-24.7V442
		C-26.3,444.8-26.2,447.5-26.1,450.3z M-45.6,585.7c14.3-24.3,16.7-64.8,14.9-120.1c2.1,0.7,4.3,1.1,6.6,1.5
		c9.1,51.2,45.6,93.1,93.7,109.9C46.4,587,2.6,600.2-45.6,585.7z M116.7,569c-70,0-127-57-127-127v-52.2c30-4.9,51.4-19.7,64.9-44.9
		c11.5,10.5,30.2,24.9,56.4,37.6c39.5,19,84.1,28.4,132.7,27.9v31.7C243.7,512,186.7,569,116.7,569z M189.9,586.1
		c-10.3-2.7-19.1-6.1-26.1-9.1c48.1-16.8,84.6-58.7,93.7-110c2.3-0.3,4.4-0.8,6.6-1.5c-1.8,55.2,0.7,95.7,14.9,120.1
		C250.7,594.2,220.8,594.4,189.9,586.1z"/>
	<circle cx="34.2" cy="432.4" r="15"/>
	<circle cx="199.9" cy="432.4" r="15"/>
	<path d="M34.2,384.4c-8.2,0-15.9,3.2-21.7,9c-3.1,3.1-3.1,8.2,0,11.3s8.2,3.1,11.3,0c2.8-2.8,6.4-4.3,10.3-4.3s7.6,1.5,10.3,4.3
		c1.6,1.6,3.6,2.3,5.7,2.3c2,0,4.1-0.8,5.7-2.3c3.1-3.1,3.1-8.2,0-11.3C50.1,387.6,42.4,384.4,34.2,384.4z"/>
	<path d="M178.2,393.4c-3.1,3.1-3.1,8.2,0,11.3c3.1,3.1,8.2,3.1,11.3,0c5.7-5.7,15-5.7,20.7,0c1.6,1.6,3.6,2.3,5.7,2.3
		s4.1-0.8,5.7-2.3c3.1-3.1,3.1-8.2,0-11.3C209.6,381.4,190.1,381.4,178.2,393.4z"/>
	<path d="M143.6,523.9H88.2c-4.6,0-8.3-3.8-8.3-8.3l0,0c0-4.6,3.8-8.3,8.3-8.3h55.3c4.6,0,8.3,3.8,8.3,8.3l0,0
		C151.9,520.1,148.2,523.9,143.6,523.9z"/>
</g>
</svg>
