<?xml version="1.0" encoding="utf-8"?>
<!-- Generator: Adobe Illustrator 16.0.0, SVG Export Plug-In . SVG Version: 6.00 Build 0)  -->
<!DOCTYPE svg PUBLIC "-//W3C//DTD SVG 1.1//EN" "http://www.w3.org/Graphics/SVG/1.1/DTD/svg11.dtd">
<svg version="1.1" id="Capa_1" xmlns="http://www.w3.org/2000/svg" xmlns:xlink="http://www.w3.org/1999/xlink" x="0px" y="0px"
	 width="100px" height="100px" viewBox="200 200 100 100" enable-background="new 200 200 100 100" xml:space="preserve">
<g>
	<g>
		<path fill="#1E2758" d="M247.474,275.21h-39.238c-0.575,0-1.042-0.466-1.042-1.041v-7.15c0-0.575,0.466-1.042,1.042-1.042h39.238
			c0.575,0,1.042,0.467,1.042,1.042v7.15C248.515,274.744,248.049,275.21,247.474,275.21z M209.278,273.127h37.154v-5.066h-37.154
			V273.127z"/>
	</g>
	<g>
		<path fill="#1E2758" d="M297.501,278.675l-0.003-25.924c0.017-0.461,0.077-5.038-3.78-7.322v-19.028
			c0-0.576-0.467-1.042-1.042-1.042c-4.666,0-8.463-3.118-8.463-6.95c0-1.367-1.097-3.367-10.579-4.956
			c-6.316-1.059-14.701-1.642-23.612-1.642c-0.007,0-0.014,0.002-0.021,0.002c-0.007,0-0.014-0.002-0.021-0.002
			c-8.911,0-17.296,0.583-23.612,1.642c-9.482,1.589-10.578,3.589-10.578,4.956c0,3.832-3.797,6.95-8.464,6.95
			c-0.575,0-1.042,0.466-1.042,1.042v19.028c-3.857,2.284-3.797,6.861-3.78,7.322l-0.002,25.924c0,0.362,0.184,0.68,0.464,0.866
			c-0.295,0.529-0.464,1.137-0.464,1.785c0,1.475,1.172,2.626,1.87,3.182v2.639c0,0.576,0.466,1.042,1.042,1.042h4.868
			c0.575,0,1.042-0.466,1.042-1.042v-2.639c0.698-0.556,1.87-1.707,1.87-3.183c0-0.578-0.138-1.122-0.376-1.608h74.369
			c-0.238,0.486-0.374,1.031-0.374,1.608c0,1.476,1.172,2.627,1.869,3.183v2.639c0,0.576,0.467,1.042,1.042,1.042h4.867
			c0.575,0,1.042-0.466,1.042-1.042v-2.639c0.697-0.556,1.87-1.707,1.87-3.182c0-0.648-0.17-1.256-0.464-1.785
			C297.317,279.354,297.501,279.036,297.501,278.675z M204.585,277.633v-14.079h90.833v14.079H204.585z M208.367,227.398
			c5.324-0.449,9.497-4.302,9.505-8.976c0.025-0.061,0.786-1.622,9.333-2.996c6.147-0.988,14.235-1.532,22.775-1.532
			c0.007,0,0.014-0.002,0.021-0.002c0.007,0,0.014,0.002,0.021,0.002c8.54,0,16.627,0.544,22.775,1.532
			c8.467,1.361,9.294,2.907,9.332,2.995c0,0.001,0,0.002,0,0.003c0.01,4.673,4.183,8.525,9.506,8.974v17.646h-2.99v-14.899
			c0-0.575-0.467-1.042-1.042-1.042c-3.869,0-8.367-2.855-8.367-6.536c0-2.062-2.906-3.615-8.885-4.749
			c-5.309-1.007-12.528-1.561-20.329-1.561c-0.007,0-0.014,0.002-0.021,0.002s-0.014-0.002-0.021-0.002
			c-7.8,0-15.02,0.554-20.329,1.561c-5.978,1.133-8.884,2.687-8.884,4.749c0,3.681-4.498,6.535-8.367,6.535
			c-0.575,0-1.042,0.467-1.042,1.042v14.899h-2.99V227.398z M275.653,231.709h-15.925c-4.108,0-7.325,2.029-7.325,4.619v8.715H247.6
			v-8.715c0-2.59-3.217-4.619-7.325-4.619h-15.925c-4.108,0-7.326,2.029-7.326,4.619v8.715h-3.582v-13.913
			c4.636-0.468,9.409-3.976,9.409-8.563c0-0.014,0.422-1.418,7.189-2.702c5.184-0.983,12.266-1.525,19.94-1.525
			c0.007,0,0.014-0.002,0.021-0.002c0.007,0,0.014,0.002,0.021,0.002c7.674,0,14.755,0.542,19.94,1.525
			c6.767,1.283,7.189,2.688,7.189,2.702c0,4.588,4.772,8.095,9.409,8.563v13.913h-3.583v-8.715
			C282.978,233.739,279.76,231.709,275.653,231.709z M280.895,236.329v8.715h-26.409v-8.715c0-1.197,2.242-2.536,5.242-2.536h15.925
			C278.653,233.793,280.895,235.132,280.895,236.329z M245.516,236.329v8.715h-26.409v-8.715c0-1.197,2.242-2.536,5.242-2.536
			h15.925C243.275,233.793,245.516,235.132,245.516,236.329z M207.508,247.127h84.987c3.049,1.675,2.929,5.394,2.922,5.551
			c-0.001,0.018-0.001,0.034-0.001,0.052v8.74h-90.828v-8.74c0-0.015,0-0.033-0.001-0.048
			C204.579,252.521,204.459,248.802,207.508,247.127z M211.109,281.326c0,0.664-0.936,1.481-1.387,1.771
			c-0.301,0.191-0.483,0.523-0.483,0.88v2.128h-2.785v-2.128c0-0.354-0.183-0.687-0.48-0.878c-0.454-0.292-1.39-1.109-1.39-1.773
			c0-0.887,0.72-1.607,1.605-1.609h3.314C210.389,279.719,211.109,280.439,211.109,281.326z M294.031,283.098
			c-0.301,0.19-0.483,0.522-0.483,0.879v2.129h-2.783v-2.129c0-0.354-0.184-0.686-0.481-0.878c-0.453-0.291-1.389-1.108-1.389-1.773
			c0-0.886,0.72-1.606,1.604-1.608h3.314c0.885,0.002,1.604,0.723,1.604,1.608C295.417,281.99,294.482,282.808,294.031,283.098z"/>
		<g>
			<path fill="#1E2758" d="M291.766,275.21h-39.237c-0.576,0-1.042-0.466-1.042-1.041v-7.15c0-0.575,0.466-1.042,1.042-1.042h39.237
				c0.575,0,1.042,0.467,1.042,1.042v7.15C292.808,274.744,292.341,275.21,291.766,275.21z M253.57,273.127h37.154v-5.066H253.57
				V273.127z"/>
		</g>
	</g>
</g>
</svg>
